<?xml version="1.0" encoding="UTF-8"?>
<svg width="23px" height="24px" viewBox="0 0 23 24" version="1.1" xmlns="http://www.w3.org/2000/svg" xmlns:xlink="http://www.w3.org/1999/xlink">
    <!-- Generator: Sketch 46.2 (44496) - http://www.bohemiancoding.com/sketch -->
    <title>icon/15sec</title>
    <desc>Created with Sketch.</desc>
    <defs></defs>
    <g id="Page-1" stroke="none" stroke-width="1" fill="none" fill-rule="evenodd" opacity="0.900000036">
        <g id="Assets" transform="translate(-525.000000, -492.000000)" fill="#FFFFFF">
            <g id="icon/15sec" transform="translate(525.000000, 492.000000)">
                <g id="Group" transform="translate(0.375000, 0.000000)">
                    <polygon id="Fill-1" points="5.52734328 7.1641791e-05 0.000179104478 5.52723582 5.52734328 11.0544"></polygon>
                    <path d="M12.5677612,23.7974687 C7.01480597,23.7974687 2.49707463,19.2800955 2.49707463,13.7271403 L5.72095522,13.7271403 C5.72095522,17.5023045 8.79223881,20.5735881 12.5677612,20.5735881 C16.3429254,20.5735881 19.414209,17.5023045 19.414209,13.7271403 C19.414209,9.95161791 16.3429254,6.88033433 12.5677612,6.88033433 L4.77385075,6.88033433 L4.77385075,3.65645373 L12.5677612,3.65645373 C18.1207164,3.65645373 22.6380896,8.17418507 22.6380896,13.7271403 C22.6380896,19.2800955 18.1207164,23.7974687 12.5677612,23.7974687" id="Fill-2"></path>
                    <polygon id="Fill-4" points="9.89186866 12.2474866 8.97413731 12.4731582 8.7334209 11.5253373 10.2454209 11.073994 11.0352716 11.073994 11.0352716 16.3772776 9.89186866 16.3772776"></polygon>
                    <path d="M14.0215881,16.4674746 C13.5953194,16.4674746 13.2242149,16.3979821 12.9082746,16.2586388 C12.5923343,16.1189373 12.3064836,15.9272955 12.0507224,15.6833552 L12.7503045,14.8501612 C12.9509015,15.0306985 13.1514985,15.1711164 13.3520955,15.2714149 C13.5526925,15.3717134 13.7708418,15.4218627 14.0065433,15.4218627 C14.2773493,15.4218627 14.4915582,15.3588179 14.6498866,15.2327284 C14.8078567,15.106997 14.8866627,14.9253851 14.8866627,14.688609 L14.8866627,14.673206 C14.8866627,14.4464597 14.8003343,14.2698627 14.6273194,14.1441313 C14.4543045,14.0180418 14.2297075,13.954997 13.9538866,13.954997 C13.788394,13.954997 13.6318567,13.9739821 13.4839164,14.011594 C13.3356179,14.049206 13.1991403,14.0954149 13.0737672,14.1505791 L12.4042746,13.7067582 L12.5547224,11.1115343 L15.7954388,11.1115343 L15.7954388,12.1270567 L13.5476776,12.1270567 L13.4874985,13.0440716 C13.5928119,13.0193552 13.6981254,12.9978627 13.8034388,12.9806687 C13.9087522,12.9631164 14.0341254,12.9545194 14.1795582,12.9545194 C14.4353194,12.9545194 14.6753194,12.9871164 14.8992,13.0519522 C15.1230806,13.1171463 15.3197373,13.2170866 15.4888119,13.3524896 C15.6578866,13.4875343 15.7904239,13.6616239 15.8864239,13.8740418 C15.9820657,14.0868179 16.0300657,14.3407881 16.0300657,14.6359522 L16.0300657,14.650997 C16.0300657,14.9311164 15.9820657,15.1825791 15.8864239,15.4053851 C15.7904239,15.628191 15.6553791,15.8184 15.4812896,15.9756537 C15.3068418,16.1336239 15.0954985,16.2546985 14.8465433,16.3399522 C14.5975881,16.4248478 14.3224836,16.4674746 14.0215881,16.4674746" id="Fill-6"></path>
                </g>
            </g>
        </g>
    </g>
</svg>