<?xml version="1.0" encoding="UTF-8"?>
<svg width="20px" height="26px" viewBox="0 0 20 26" version="1.1" xmlns="http://www.w3.org/2000/svg" xmlns:xlink="http://www.w3.org/1999/xlink">
    <!-- Generator: Sketch 46.2 (44496) - http://www.bohemiancoding.com/sketch -->
    <title>icon/bulb</title>
    <desc>Created with Sketch.</desc>
    <defs></defs>
    <g id="Page-1" stroke="none" stroke-width="1" fill="none" fill-rule="evenodd">
        <g id="Assets" transform="translate(-443.000000, -493.000000)" fill="#FFFFFF">
            <g id="icon/bulb" transform="translate(440.000000, 493.000000)">
                <g id="Group" transform="translate(3.656250, 0.000000)">
                    <path d="M9.226075,0.17115 C4.130575,0.17115 7.5e-05,4.30165 7.5e-05,9.39715 C7.5e-05,14.49265 4.130575,18.6234 9.226075,18.6234 C14.321575,18.6234 18.452325,14.49265 18.452325,9.39715 C18.452325,4.30165 14.321575,0.17115 9.226075,0.17115" id="Fill-1"></path>
                    <path d="M11.85035,20.248775 L6.60185,20.248775 C6.18785,20.248775 5.85185,20.584525 5.85185,20.998775 C5.85185,21.413025 6.18785,21.748775 6.60185,21.748775 L11.85035,21.748775 C12.2646,21.748775 12.60035,21.413025 12.60035,20.998775 C12.60035,20.584525 12.2646,20.248775 11.85035,20.248775" id="Fill-4"></path>
                    <path d="M11.85035,23.0664 L6.60185,23.0664 C6.18785,23.0664 5.85185,23.40215 5.85185,23.8164 C5.85185,24.23065 6.18785,24.5664 6.60185,24.5664 L8.4761,24.5664 L8.4761,25.2499 C8.4761,25.6644 8.81185,25.9999 9.2261,25.9999 C9.64035,25.9999 9.9761,25.6644 9.9761,25.2499 L9.9761,24.5664 L11.85035,24.5664 C12.2646,24.5664 12.60035,24.23065 12.60035,23.8164 C12.60035,23.40215 12.2646,23.0664 11.85035,23.0664" id="Fill-6"></path>
                </g>
            </g>
        </g>
    </g>
</svg>