<?xml version="1.0" encoding="UTF-8"?>
<svg width="123px" height="22px" viewBox="0 0 123 22" version="1.1" xmlns="http://www.w3.org/2000/svg" xmlns:xlink="http://www.w3.org/1999/xlink">
    <!-- Generator: Sketch 46.2 (44496) - http://www.bohemiancoding.com/sketch -->
    <title>logo/NPR-small</title>
    <desc>Created with Sketch.</desc>
    <defs></defs>
    <g id="Page-1" stroke="none" stroke-width="1" fill="none" fill-rule="evenodd">
        <g id="Assets" transform="translate(-98.000000, -654.000000)">
            <g id="logo/NPR-small" transform="translate(97.000000, 647.000000)">
                <g transform="translate(0.666667, 0.666667)" id="npr_logo">
                    <g transform="translate(0.705882, 0.234706)">
                        <text id="one" font-family="GothamLight, Gotham Light" font-size="33.8283" font-weight="normal" letter-spacing="-2.81902485" fill="#FFFFFF">
                            <tspan x="67.159125" y="25">on</tspan>
                            <tspan x="103.907935" y="25">e</tspan>
                        </text>
                        <rect id="white-box" fill="#FFFFFF" x="0" y="6.633" width="66.6847059" height="21.2256"></rect>
                        <polygon id="Fill-1" fill="#DF5434" points="0.48738927 27.4164 22.3408525 27.4164 22.3408525 7.0752 0.48738927 7.0752"></polygon>
                        <polygon id="Fill-3" fill="#0D0F13" points="22.3408525 27.4164 44.2106902 27.4164 44.2106902 7.0752 22.3408525 7.0752"></polygon>
                        <polygon id="Fill-4" fill="#1B68A4" points="44.2106902 27.4164 66.0795647 27.4164 66.0795647 7.0752 44.2106902 7.0752"></polygon>
                        <path d="M58.037756,14.3709428 C57.5722866,14.0967108 57.0637138,13.9586942 56.5091478,13.9586942 C55.9052175,13.9586942 55.3684708,14.2158148 54.9013158,14.7289304 C54.431512,15.2427215 54.1974529,15.8690872 54.1974529,16.6098289 L54.1974529,22.5564762 L51.5835521,22.5564762 L51.5835521,12.0746435 L54.1974529,12.0746435 L54.1974529,13.075658 C54.9261184,12.2905619 55.8943814,11.8979012 57.102242,11.8979012 C57.9903181,11.8979012 58.6710641,12.0251107 59.1415904,12.2788541 L58.037756,14.3709428" id="Fill-8" fill="#FFFFFE"></path>
                        <path d="M13.7420699,22.5564762 L13.7420699,16.5226961 C13.7420699,15.63223 13.5595423,14.9826739 13.1923199,14.5726767 C12.8250976,14.163355 12.2276689,13.9591445 11.3969036,13.9591445 C11.0118619,13.9591445 10.6020176,14.0595611 10.1649628,14.261295 C9.72911201,14.4628038 9.38813701,14.71317 9.14468665,15.0117181 L9.14468665,22.5564762 L6.53271222,22.5564762 L6.53271222,12.0746435 L8.41553955,12.0746435 L8.89690185,13.051567 C9.60750723,12.2829068 10.6581244,11.8976761 12.0463453,11.8976761 C13.3774963,11.8976761 14.4288359,12.2705236 15.1998825,13.0157683 C15.9706882,13.762589 16.3564523,14.8023291 16.3564523,16.1374654 L16.3564523,22.5564762 L13.7420699,22.5564762" id="Fill-15" fill="#FFFFFE"></path>
                        <path d="M33.0700064,22.7627131 C34.778975,22.7627131 36.1267413,22.2995807 37.1145092,21.3739913 C38.103722,20.4484019 38.5954388,19.1281255 38.5954388,17.4133873 C38.5954388,13.7364716 36.8098953,11.8976761 33.2371227,11.8976761 C32.2811405,11.8976761 31.4754185,12.191271 30.8182711,12.778911 L30.8182711,12.0741933 L28.2055742,12.0741933 L28.2055742,26.6483423 L30.8182711,26.6483423 L30.8182711,22.3022825 C31.4946826,22.6087109 32.2455019,22.7627131 33.0700064,22.7627131 M32.4863034,13.9884139 C33.690552,13.9884139 34.5528623,14.2410316 35.0751609,14.7444657 C35.5960147,15.2488005 35.8560803,16.118778 35.8560803,17.354173 C35.8560803,18.5121166 35.5948107,19.359354 35.0686593,19.8963355 C34.5441935,20.4324163 33.6799567,20.7007944 32.4769122,20.7007944 C31.8440857,20.7007944 31.2909645,20.5222509 30.8182711,20.1647136 L30.8182711,14.6712922 C31.3054126,14.2164903 31.8611826,13.9884139 32.4863034,13.9884139" id="Fill-16" fill="#FFFFFE"></path>
                    </g>
                </g>
            </g>
        </g>
    </g>
</svg>