<?xml version="1.0" encoding="UTF-8"?>
<svg width="185px" height="33px" viewBox="0 0 185 33" version="1.1" xmlns="http://www.w3.org/2000/svg" xmlns:xlink="http://www.w3.org/1999/xlink">
    <!-- Generator: Sketch 46.2 (44496) - http://www.bohemiancoding.com/sketch -->
    <title>logo/NPR-med</title>
    <desc>Created with Sketch.</desc>
    <defs></defs>
    <g id="Page-1" stroke="none" stroke-width="1" fill="none" fill-rule="evenodd">
        <g id="Assets" transform="translate(-98.000000, -586.000000)">
            <g id="logo/NPR-med" transform="translate(97.000000, 585.000000)">
                <g id="logo/NPR-small">
                    <g id="npr_logo" transform="translate(1.069519, -8.735294)">
                        <text id="one" font-family="GothamLight, Gotham Light" font-size="51.255" font-weight="normal" letter-spacing="-4.27125" fill="#FFFFFF">
                            <tspan x="101.75625" y="37">on</tspan>
                            <tspan x="157.436265" y="37">e</tspan>
                        </text>
                        <rect id="white-box" fill="#FFFFFF" x="0" y="10.05" width="101.037433" height="32.16"></rect>
                        <polygon id="Fill-1" fill="#DF5434" points="0.73846859 41.54 33.8497765 41.54 33.8497765 10.72 0.73846859 10.72"></polygon>
                        <polygon id="Fill-3" fill="#0D0F13" points="33.8497765 41.54 66.9858942 41.54 66.9858942 10.72 33.8497765 10.72"></polygon>
                        <polygon id="Fill-4" fill="#1B68A4" points="66.9858942 41.54 100.120553 41.54 100.120553 10.72 66.9858942 10.72"></polygon>
                        <path d="M87.935994,21.7741558 C87.2307373,21.3586527 86.4601724,21.1495366 85.6199209,21.1495366 C84.704875,21.1495366 83.8916225,21.5391134 83.1838119,22.3165612 C82.4719879,23.0950325 82.1173529,24.0440716 82.1173529,25.1664075 L82.1173529,34.1764791 L78.1568971,34.1764791 L78.1568971,18.2949145 L82.1173529,18.2949145 L82.1173529,19.811603 C83.2213915,18.6220634 84.6884567,18.0271231 86.5185485,18.0271231 C87.8641184,18.0271231 88.8955517,18.2198647 89.6084702,18.6043244 L87.935994,21.7741558" id="Fill-8" fill="#FFFFFE"></path>
                        <path d="M20.821318,34.1764791 L20.821318,25.034388 C20.821318,23.685197 20.544761,22.701021 19.9883635,22.0798132 C19.431966,21.4596288 18.5267711,21.1502189 17.2680357,21.1502189 C16.6846392,21.1502189 16.0636631,21.3023653 15.4014588,21.6080227 C14.7410788,21.913339 14.22445,22.2926818 13.8555858,22.7450275 L13.8555858,34.1764791 L9.89804881,34.1764791 L9.89804881,18.2949145 L12.7508175,18.2949145 L13.4801543,19.7751015 C14.5568291,18.6104648 16.1486733,18.0267819 18.2520384,18.0267819 C20.2689338,18.0267819 21.8618726,18.5917024 23.0301249,19.720861 C24.1980125,20.8524075 24.7825035,22.4277714 24.7825035,24.4507051 L24.7825035,34.1764791 L20.821318,34.1764791" id="Fill-15" fill="#FFFFFE"></path>
                        <path d="M50.1060703,34.4889593 C52.6954167,34.4889593 54.7374868,33.7872435 56.2341049,32.3848353 C57.7329121,30.9824271 58.4779376,28.9820084 58.4779376,26.3839202 C58.4779376,20.8128358 55.7725686,18.0267819 50.3592768,18.0267819 C48.9108189,18.0267819 47.6900281,18.4716227 46.6943501,19.3619864 L46.6943501,18.2942322 L42.7357186,18.2942322 L42.7357186,40.3762763 L46.6943501,40.3762763 L46.6943501,33.7913371 C47.7192161,34.2556226 48.856821,34.4889593 50.1060703,34.4889593 M49.2216719,21.1945665 C51.0462909,21.1945665 52.3528217,21.5773205 53.1441832,22.3400996 C53.9333555,23.1042432 54.3273944,24.4223909 54.3273944,26.2942015 C54.3273944,28.0486616 53.9315313,29.3323546 53.1343322,30.1459628 C52.3396871,30.9582065 51.0302374,31.3648401 49.2074427,31.3648401 C48.2486147,31.3648401 47.4105523,31.0943196 46.6943501,30.5525964 L46.6943501,22.2292305 C47.4324434,21.5401368 48.2745191,21.1945665 49.2216719,21.1945665" id="Fill-16" fill="#FFFFFE"></path>
                    </g>
                </g>
            </g>
        </g>
    </g>
</svg>